{
  "accessors": [
    {
      "bufferView": 2,
      "componentType": 5126,
      "count": 508,
      "max": [
        0.15650710463523865,
        0.18999849259853363,
        0.20310300588607788
      ],
      "min": [
        -0.15650710463523865,
        -0.11049439758062363,
        -0.007385909091681242
      ],
      "type": "VEC3"
    },
    {
      "bufferView": 2,
      "byteOffset": 6096,
      "componentType": 5126,
      "count": 508,
      "max": [
        1.0,
        0.9992392063140869,
        1.0
      ],
      "min": [
        -1.0,
        -0.9969174861907959,
        -0.996623694896698
      ],
      "type": "VEC3"
    },
    {
      "bufferView": 3,
      "componentType": 5126,
      "count": 508,
      "max": [
        1.0,
        0.999774694442749,
        1.0,
        1.0
      ],
      "min": [
        -1.0,
        -0.9393901824951172,
        -0.9422271251678467,
        1.0
      ],
      "type": "VEC4"
    },
    {
      "bufferView": 1,
      "componentType": 5126,
      "count": 508,
      "max": [
        0.9983479976654053,
        0.9951190948486328
      ],
      "min": [
        0.0014976849779486656,
        0.0014945860020816326
      ],
      "type": "VEC2"
    },
    {
      "bufferView": 0,
      "componentType": 5125,
      "count": 2040,
      "type": "SCALAR"
    }
  ],
  "asset": {
    "extras": {
      "author": "Andrey 3D (https://sketchfab.com/Andrey3Ds)",
      "license": "SKETCHFAB Standard (https://sketchfab.com/licenses)",
      "source": "https://sketchfab.com/3d-models/apple-macbook-pro-eddf60ccdaba497c9e256e64bd0946d9",
      "title": "Apple MacBook Pro"
    },
    "generator": "Sketchfab-16.59.0",
    "version": "2.0"
  },
  "bufferViews": [
    {
      "buffer": 0,
      "byteLength": 8160,
      "name": "floatBufferViews",
      "target": 34963
    },
    {
      "buffer": 0,
      "byteLength": 4064,
      "byteOffset": 8160,
      "byteStride": 8,
      "name": "floatBufferViews",
      "target": 34962
    },
    {
      "buffer": 0,
      "byteLength": 12192,
      "byteOffset": 12224,
      "byteStride": 12,
      "name": "floatBufferViews",
      "target": 34962
    },
    {
      "buffer": 0,
      "byteLength": 8128,
      "byteOffset": 24416,
      "byteStride": 16,
      "name": "floatBufferViews",
      "target": 34962
    }
  ],
  "buffers": [
    {
      "byteLength": 32544,
      "uri": "scene.bin"
    }
  ],
  "images": [
    {
      "uri": "textures/macbookpro_baseColor.png"
    },
    {
      "uri": "textures/macbookpro_metallicRoughness.png"
    },
    {
      "uri": "textures/macbookpro_emissive.jpeg"
    },
    {
      "uri": "textures/macbookpro_normal.png"
    }
  ],
  "materials": [
    {
      "alphaMode": "BLEND",
      "doubleSided": true,
      "emissiveTexture": {
        "index": 2
      },
      "name": "macbookpro",
      "normalTexture": {
        "index": 3
      },
      "occlusionTexture": {
        "index": 1
      },
      "pbrMetallicRoughness": {
        "baseColorTexture": {
          "index": 0
        },
        "metallicRoughnessTexture": {
          "index": 1
        }
      }
    }
  ],
  "meshes": [
    {
      "name": "macbookpro-material",
      "primitives": [
        {
          "attributes": {
            "NORMAL": 1,
            "POSITION": 0,
            "TANGENT": 2,
            "TEXCOORD_0": 3
          },
          "indices": 4,
          "material": 0,
          "mode": 4
        }
      ]
    }
  ],
  "nodes": [
    {
      "children": [
        1
      ],
      "matrix": [
        1.0,
        0.0,
        0.0,
        0.0,
        0.0,
        2.220446049250313e-16,
        -1.0,
        0.0,
        0.0,
        1.0,
        2.220446049250313e-16,
        0.0,
        0.0,
        0.0,
        0.0,
        1.0
      ],
      "name": "Sketchfab_model"
    },
    {
      "children": [
        2
      ],
      "name": "Collada visual scene group"
    },
    {
      "children": [
        3
      ],
      "name": "Macbook"
    },
    {
      "mesh": 0,
      "name": "macbookpro-material"
    }
  ],
  "samplers": [
    {
      "magFilter": 9729,
      "minFilter": 9987,
      "wrapS": 10497,
      "wrapT": 10497
    }
  ],
  "scene": 0,
  "scenes": [
    {
      "name": "Sketchfab_Scene",
      "nodes": [
        0
      ]
    }
  ],
  "textures": [
    {
      "sampler": 0,
      "source": 0
    },
    {
      "sampler": 0,
      "source": 1
    },
    {
      "sampler": 0,
      "source": 2
    },
    {
      "sampler": 0,
      "source": 3
    }
  ]
}
